<?xml version="1.0" encoding="utf-8" standalone="no"?>
<!DOCTYPE svg PUBLIC "-//W3C//DTD SVG 1.1//EN"
  "http://www.w3.org/Graphics/SVG/1.1/DTD/svg11.dtd">
<svg xmlns:xlink="http://www.w3.org/1999/xlink" width="219.376166pt" height="255.418821pt" viewBox="0 0 219.376166 255.418821" xmlns="http://www.w3.org/2000/svg" version="1.1">
 <metadata>
  <rdf:RDF xmlns:dc="http://purl.org/dc/elements/1.1/" xmlns:cc="http://creativecommons.org/ns#" xmlns:rdf="http://www.w3.org/1999/02/22-rdf-syntax-ns#">
   <cc:Work>
    <dc:type rdf:resource="http://purl.org/dc/dcmitype/StillImage"/>
    <dc:date>2026-03-21T16:44:49.333797</dc:date>
    <dc:format>image/svg+xml</dc:format>
    <dc:creator>
     <cc:Agent>
      <dc:title>Matplotlib v3.10.8, https://matplotlib.org/</dc:title>
     </cc:Agent>
    </dc:creator>
   </cc:Work>
  </rdf:RDF>
 </metadata>
 <defs>
  <style type="text/css">*{stroke-linejoin: round; stroke-linecap: butt}</style>
 </defs>
 <g id="figure_1">
  <g id="patch_1">
   <path d="M 0 255.418821 
L 219.376166 255.418821 
L 219.376166 0 
L 0 0 
L 0 255.418821 
z
" style="fill: none"/>
  </g>
  <g id="axes_1">
   <g id="patch_2">
    <path d="M 31.640242 210.607343 
L 210.22292 210.607343 
L 210.22292 22.103406 
L 31.640242 22.103406 
L 31.640242 210.607343 
z
" style="fill: none"/>
   </g>
   <g id="LineCollection_1">
    <path d="M 55.992426 82.162972 
L 55.992426 82.117463 
" clip-path="url(#p86ed6b311b)" style="fill: none; stroke: #6b8e23"/>
    <path d="M 72.227214 85.977327 
L 72.227214 85.947125 
" clip-path="url(#p86ed6b311b)" style="fill: none; stroke: #6b8e23"/>
    <path d="M 88.462003 88.282195 
L 88.462003 88.266398 
" clip-path="url(#p86ed6b311b)" style="fill: none; stroke: #6b8e23"/>
    <path d="M 104.696792 89.931102 
L 104.696792 89.922806 
" clip-path="url(#p86ed6b311b)" style="fill: none; stroke: #6b8e23"/>
    <path d="M 120.931581 91.218313 
L 120.931581 91.217202 
" clip-path="url(#p86ed6b311b)" style="fill: none; stroke: #6b8e23"/>
    <path d="M 137.16637 92.274833 
L 137.16637 92.270385 
" clip-path="url(#p86ed6b311b)" style="fill: none; stroke: #6b8e23"/>
    <path d="M 153.401159 93.170752 
L 153.401159 93.170408 
" clip-path="url(#p86ed6b311b)" style="fill: none; stroke: #6b8e23"/>
    <path d="M 169.635947 93.950997 
L 169.635947 93.950311 
" clip-path="url(#p86ed6b311b)" style="fill: none; stroke: #6b8e23"/>
    <path d="M 185.870736 94.646839 
L 185.870736 94.643135 
" clip-path="url(#p86ed6b311b)" style="fill: none; stroke: #6b8e23"/>
    <path d="M 202.105525 95.274285 
L 202.105525 95.270526 
" clip-path="url(#p86ed6b311b)" style="fill: none; stroke: #6b8e23"/>
   </g>
   <g id="line2d_1">
    <defs>
     <path id="mc43d595e21" d="M 3 0 
L -3 -0 
" style="stroke: #6b8e23; stroke-width: 0.5"/>
    </defs>
    <g clip-path="url(#p86ed6b311b)">
     <use xlink:href="#mc43d595e21" x="55.992426" y="82.162972" style="fill: #6b8e23; stroke: #6b8e23; stroke-width: 0.5"/>
     <use xlink:href="#mc43d595e21" x="72.227214" y="85.977327" style="fill: #6b8e23; stroke: #6b8e23; stroke-width: 0.5"/>
     <use xlink:href="#mc43d595e21" x="88.462003" y="88.282195" style="fill: #6b8e23; stroke: #6b8e23; stroke-width: 0.5"/>
     <use xlink:href="#mc43d595e21" x="104.696792" y="89.931102" style="fill: #6b8e23; stroke: #6b8e23; stroke-width: 0.5"/>
     <use xlink:href="#mc43d595e21" x="120.931581" y="91.218313" style="fill: #6b8e23; stroke: #6b8e23; stroke-width: 0.5"/>
     <use xlink:href="#mc43d595e21" x="137.16637" y="92.274833" style="fill: #6b8e23; stroke: #6b8e23; stroke-width: 0.5"/>
     <use xlink:href="#mc43d595e21" x="153.401159" y="93.170752" style="fill: #6b8e23; stroke: #6b8e23; stroke-width: 0.5"/>
     <use xlink:href="#mc43d595e21" x="169.635947" y="93.950997" style="fill: #6b8e23; stroke: #6b8e23; stroke-width: 0.5"/>
     <use xlink:href="#mc43d595e21" x="185.870736" y="94.646839" style="fill: #6b8e23; stroke: #6b8e23; stroke-width: 0.5"/>
     <use xlink:href="#mc43d595e21" x="202.105525" y="95.274285" style="fill: #6b8e23; stroke: #6b8e23; stroke-width: 0.5"/>
    </g>
   </g>
   <g id="line2d_2">
    <g clip-path="url(#p86ed6b311b)">
     <use xlink:href="#mc43d595e21" x="55.992426" y="82.117463" style="fill: #6b8e23; stroke: #6b8e23; stroke-width: 0.5"/>
     <use xlink:href="#mc43d595e21" x="72.227214" y="85.947125" style="fill: #6b8e23; stroke: #6b8e23; stroke-width: 0.5"/>
     <use xlink:href="#mc43d595e21" x="88.462003" y="88.266398" style="fill: #6b8e23; stroke: #6b8e23; stroke-width: 0.5"/>
     <use xlink:href="#mc43d595e21" x="104.696792" y="89.922806" style="fill: #6b8e23; stroke: #6b8e23; stroke-width: 0.5"/>
     <use xlink:href="#mc43d595e21" x="120.931581" y="91.217202" style="fill: #6b8e23; stroke: #6b8e23; stroke-width: 0.5"/>
     <use xlink:href="#mc43d595e21" x="137.16637" y="92.270385" style="fill: #6b8e23; stroke: #6b8e23; stroke-width: 0.5"/>
     <use xlink:href="#mc43d595e21" x="153.401159" y="93.170408" style="fill: #6b8e23; stroke: #6b8e23; stroke-width: 0.5"/>
     <use xlink:href="#mc43d595e21" x="169.635947" y="93.950311" style="fill: #6b8e23; stroke: #6b8e23; stroke-width: 0.5"/>
     <use xlink:href="#mc43d595e21" x="185.870736" y="94.643135" style="fill: #6b8e23; stroke: #6b8e23; stroke-width: 0.5"/>
     <use xlink:href="#mc43d595e21" x="202.105525" y="95.270526" style="fill: #6b8e23; stroke: #6b8e23; stroke-width: 0.5"/>
    </g>
   </g>
   <g id="LineCollection_2">
    <path d="M 55.992426 58.569684 
L 55.992426 58.548272 
" clip-path="url(#p86ed6b311b)" style="fill: none; stroke: #7a3e9d"/>
    <path d="M 72.227214 60.533139 
L 72.227214 60.515691 
" clip-path="url(#p86ed6b311b)" style="fill: none; stroke: #7a3e9d"/>
    <path d="M 88.462003 61.73556 
L 88.462003 61.730655 
" clip-path="url(#p86ed6b311b)" style="fill: none; stroke: #7a3e9d"/>
    <path d="M 104.696792 62.618443 
L 104.696792 62.611472 
" clip-path="url(#p86ed6b311b)" style="fill: none; stroke: #7a3e9d"/>
    <path d="M 120.931581 63.314311 
L 120.931581 63.312232 
" clip-path="url(#p86ed6b311b)" style="fill: none; stroke: #7a3e9d"/>
    <path d="M 137.16637 63.897022 
L 137.16637 63.893769 
" clip-path="url(#p86ed6b311b)" style="fill: none; stroke: #7a3e9d"/>
    <path d="M 153.401159 64.399126 
L 153.401159 64.395094 
" clip-path="url(#p86ed6b311b)" style="fill: none; stroke: #7a3e9d"/>
    <path d="M 169.635947 64.841253 
L 169.635947 64.840412 
" clip-path="url(#p86ed6b311b)" style="fill: none; stroke: #7a3e9d"/>
    <path d="M 185.870736 65.242701 
L 185.870736 65.240106 
" clip-path="url(#p86ed6b311b)" style="fill: none; stroke: #7a3e9d"/>
    <path d="M 202.105525 65.608951 
L 202.105525 65.607457 
" clip-path="url(#p86ed6b311b)" style="fill: none; stroke: #7a3e9d"/>
   </g>
   <g id="line2d_3">
    <defs>
     <path id="mb27d4d5fd2" d="M 3 0 
L -3 -0 
" style="stroke: #7a3e9d; stroke-width: 0.5"/>
    </defs>
    <g clip-path="url(#p86ed6b311b)">
     <use xlink:href="#mb27d4d5fd2" x="55.992426" y="58.569684" style="fill: #7a3e9d; stroke: #7a3e9d; stroke-width: 0.5"/>
     <use xlink:href="#mb27d4d5fd2" x="72.227214" y="60.533139" style="fill: #7a3e9d; stroke: #7a3e9d; stroke-width: 0.5"/>
     <use xlink:href="#mb27d4d5fd2" x="88.462003" y="61.73556" style="fill: #7a3e9d; stroke: #7a3e9d; stroke-width: 0.5"/>
     <use xlink:href="#mb27d4d5fd2" x="104.696792" y="62.618443" style="fill: #7a3e9d; stroke: #7a3e9d; stroke-width: 0.5"/>
     <use xlink:href="#mb27d4d5fd2" x="120.931581" y="63.314311" style="fill: #7a3e9d; stroke: #7a3e9d; stroke-width: 0.5"/>
     <use xlink:href="#mb27d4d5fd2" x="137.16637" y="63.897022" style="fill: #7a3e9d; stroke: #7a3e9d; stroke-width: 0.5"/>
     <use xlink:href="#mb27d4d5fd2" x="153.401159" y="64.399126" style="fill: #7a3e9d; stroke: #7a3e9d; stroke-width: 0.5"/>
     <use xlink:href="#mb27d4d5fd2" x="169.635947" y="64.841253" style="fill: #7a3e9d; stroke: #7a3e9d; stroke-width: 0.5"/>
     <use xlink:href="#mb27d4d5fd2" x="185.870736" y="65.242701" style="fill: #7a3e9d; stroke: #7a3e9d; stroke-width: 0.5"/>
     <use xlink:href="#mb27d4d5fd2" x="202.105525" y="65.608951" style="fill: #7a3e9d; stroke: #7a3e9d; stroke-width: 0.5"/>
    </g>
   </g>
   <g id="line2d_4">
    <g clip-path="url(#p86ed6b311b)">
     <use xlink:href="#mb27d4d5fd2" x="55.992426" y="58.548272" style="fill: #7a3e9d; stroke: #7a3e9d; stroke-width: 0.5"/>
     <use xlink:href="#mb27d4d5fd2" x="72.227214" y="60.515691" style="fill: #7a3e9d; stroke: #7a3e9d; stroke-width: 0.5"/>
     <use xlink:href="#mb27d4d5fd2" x="88.462003" y="61.730655" style="fill: #7a3e9d; stroke: #7a3e9d; stroke-width: 0.5"/>
     <use xlink:href="#mb27d4d5fd2" x="104.696792" y="62.611472" style="fill: #7a3e9d; stroke: #7a3e9d; stroke-width: 0.5"/>
     <use xlink:href="#mb27d4d5fd2" x="120.931581" y="63.312232" style="fill: #7a3e9d; stroke: #7a3e9d; stroke-width: 0.5"/>
     <use xlink:href="#mb27d4d5fd2" x="137.16637" y="63.893769" style="fill: #7a3e9d; stroke: #7a3e9d; stroke-width: 0.5"/>
     <use xlink:href="#mb27d4d5fd2" x="153.401159" y="64.395094" style="fill: #7a3e9d; stroke: #7a3e9d; stroke-width: 0.5"/>
     <use xlink:href="#mb27d4d5fd2" x="169.635947" y="64.840412" style="fill: #7a3e9d; stroke: #7a3e9d; stroke-width: 0.5"/>
     <use xlink:href="#mb27d4d5fd2" x="185.870736" y="65.240106" style="fill: #7a3e9d; stroke: #7a3e9d; stroke-width: 0.5"/>
     <use xlink:href="#mb27d4d5fd2" x="202.105525" y="65.607457" style="fill: #7a3e9d; stroke: #7a3e9d; stroke-width: 0.5"/>
    </g>
   </g>
   <g id="LineCollection_3">
    <path d="M 55.992426 50.701565 
L 55.992426 50.690244 
" clip-path="url(#p86ed6b311b)" style="fill: none; stroke: #1f4e8c"/>
    <path d="M 72.227214 52.049719 
L 72.227214 52.038227 
" clip-path="url(#p86ed6b311b)" style="fill: none; stroke: #1f4e8c"/>
    <path d="M 88.462003 52.885842 
L 88.462003 52.885359 
" clip-path="url(#p86ed6b311b)" style="fill: none; stroke: #1f4e8c"/>
    <path d="M 104.696792 53.510509 
L 104.696792 53.509429 
" clip-path="url(#p86ed6b311b)" style="fill: none; stroke: #1f4e8c"/>
    <path d="M 120.931581 54.011177 
L 120.931581 54.009694 
" clip-path="url(#p86ed6b311b)" style="fill: none; stroke: #1f4e8c"/>
    <path d="M 137.16637 54.438049 
L 137.16637 54.433417 
" clip-path="url(#p86ed6b311b)" style="fill: none; stroke: #1f4e8c"/>
    <path d="M 153.401159 54.810362 
L 153.401159 54.803139 
" clip-path="url(#p86ed6b311b)" style="fill: none; stroke: #1f4e8c"/>
    <path d="M 169.635947 55.141189 
L 169.635947 55.134471 
" clip-path="url(#p86ed6b311b)" style="fill: none; stroke: #1f4e8c"/>
    <path d="M 185.870736 55.441403 
L 185.870736 55.438804 
" clip-path="url(#p86ed6b311b)" style="fill: none; stroke: #1f4e8c"/>
    <path d="M 202.105525 55.721347 
L 202.105525 55.718864 
" clip-path="url(#p86ed6b311b)" style="fill: none; stroke: #1f4e8c"/>
   </g>
   <g id="line2d_5">
    <defs>
     <path id="mca7d906361" d="M 3 0 
L -3 -0 
" style="stroke: #1f4e8c; stroke-width: 0.5"/>
    </defs>
    <g clip-path="url(#p86ed6b311b)">
     <use xlink:href="#mca7d906361" x="55.992426" y="50.701565" style="fill: #1f4e8c; stroke: #1f4e8c; stroke-width: 0.5"/>
     <use xlink:href="#mca7d906361" x="72.227214" y="52.049719" style="fill: #1f4e8c; stroke: #1f4e8c; stroke-width: 0.5"/>
     <use xlink:href="#mca7d906361" x="88.462003" y="52.885842" style="fill: #1f4e8c; stroke: #1f4e8c; stroke-width: 0.5"/>
     <use xlink:href="#mca7d906361" x="104.696792" y="53.510509" style="fill: #1f4e8c; stroke: #1f4e8c; stroke-width: 0.5"/>
     <use xlink:href="#mca7d906361" x="120.931581" y="54.011177" style="fill: #1f4e8c; stroke: #1f4e8c; stroke-width: 0.5"/>
     <use xlink:href="#mca7d906361" x="137.16637" y="54.438049" style="fill: #1f4e8c; stroke: #1f4e8c; stroke-width: 0.5"/>
     <use xlink:href="#mca7d906361" x="153.401159" y="54.810362" style="fill: #1f4e8c; stroke: #1f4e8c; stroke-width: 0.5"/>
     <use xlink:href="#mca7d906361" x="169.635947" y="55.141189" style="fill: #1f4e8c; stroke: #1f4e8c; stroke-width: 0.5"/>
     <use xlink:href="#mca7d906361" x="185.870736" y="55.441403" style="fill: #1f4e8c; stroke: #1f4e8c; stroke-width: 0.5"/>
     <use xlink:href="#mca7d906361" x="202.105525" y="55.721347" style="fill: #1f4e8c; stroke: #1f4e8c; stroke-width: 0.5"/>
    </g>
   </g>
   <g id="line2d_6">
    <g clip-path="url(#p86ed6b311b)">
     <use xlink:href="#mca7d906361" x="55.992426" y="50.690244" style="fill: #1f4e8c; stroke: #1f4e8c; stroke-width: 0.5"/>
     <use xlink:href="#mca7d906361" x="72.227214" y="52.038227" style="fill: #1f4e8c; stroke: #1f4e8c; stroke-width: 0.5"/>
     <use xlink:href="#mca7d906361" x="88.462003" y="52.885359" style="fill: #1f4e8c; stroke: #1f4e8c; stroke-width: 0.5"/>
     <use xlink:href="#mca7d906361" x="104.696792" y="53.509429" style="fill: #1f4e8c; stroke: #1f4e8c; stroke-width: 0.5"/>
     <use xlink:href="#mca7d906361" x="120.931581" y="54.009694" style="fill: #1f4e8c; stroke: #1f4e8c; stroke-width: 0.5"/>
     <use xlink:href="#mca7d906361" x="137.16637" y="54.433417" style="fill: #1f4e8c; stroke: #1f4e8c; stroke-width: 0.5"/>
     <use xlink:href="#mca7d906361" x="153.401159" y="54.803139" style="fill: #1f4e8c; stroke: #1f4e8c; stroke-width: 0.5"/>
     <use xlink:href="#mca7d906361" x="169.635947" y="55.134471" style="fill: #1f4e8c; stroke: #1f4e8c; stroke-width: 0.5"/>
     <use xlink:href="#mca7d906361" x="185.870736" y="55.438804" style="fill: #1f4e8c; stroke: #1f4e8c; stroke-width: 0.5"/>
     <use xlink:href="#mca7d906361" x="202.105525" y="55.718864" style="fill: #1f4e8c; stroke: #1f4e8c; stroke-width: 0.5"/>
    </g>
   </g>
   <g id="line2d_7"/>
   <g id="line2d_8"/>
   <g id="line2d_9"/>
   <g id="matplotlib.axis_1">
    <g id="xtick_1">
     <g id="line2d_10">
      <defs>
       <path id="mdf0fdf91a3" d="M 0 0 
L 0 -4 
" style="stroke: #000000; stroke-width: 0.8"/>
      </defs>
      <g>
       <use xlink:href="#mdf0fdf91a3" x="39.757637" y="210.607343" style="stroke: #000000; stroke-width: 0.8"/>
      </g>
     </g>
     <g id="text_1">
      <!-- $\mathdefault{0.0}$ -->
      <g transform="translate(29.686996 225.868795) scale(0.17 -0.17)">
       <defs>
        <path id="CMR17-30" d="M 2688 2025 
C 2688 2416 2682 3080 2413 3591 
C 2176 4039 1798 4198 1466 4198 
C 1158 4198 768 4058 525 3597 
C 269 3118 243 2524 243 2025 
C 243 1661 250 1106 448 619 
C 723 -39 1216 -128 1466 -128 
C 1760 -128 2208 -7 2470 600 
C 2662 1042 2688 1559 2688 2025 
z
M 1466 -26 
C 1056 -26 813 325 723 812 
C 653 1188 653 1738 653 2096 
C 653 2588 653 2997 736 3387 
C 858 3929 1216 4096 1466 4096 
C 1728 4096 2067 3923 2189 3400 
C 2272 3036 2278 2607 2278 2096 
C 2278 1680 2278 1169 2202 792 
C 2067 95 1690 -26 1466 -26 
z
" transform="scale(0.015625)"/>
        <path id="CMMI12-3a" d="M 1178 307 
C 1178 492 1024 619 870 619 
C 685 619 557 466 557 313 
C 557 128 710 0 864 0 
C 1050 0 1178 153 1178 307 
z
" transform="scale(0.015625)"/>
       </defs>
       <use xlink:href="#CMR17-30" transform="scale(0.996264)"/>
       <use xlink:href="#CMMI12-3a" transform="translate(45.690477 0) scale(0.996264)"/>
       <use xlink:href="#CMR17-30" transform="translate(72.787654 0) scale(0.996264)"/>
      </g>
     </g>
    </g>
    <g id="xtick_2">
     <g id="line2d_11">
      <g>
       <use xlink:href="#mdf0fdf91a3" x="120.931581" y="210.607343" style="stroke: #000000; stroke-width: 0.8"/>
      </g>
     </g>
     <g id="text_2">
      <!-- $\mathdefault{0.5}$ -->
      <g transform="translate(110.86094 225.868795) scale(0.17 -0.17)">
       <defs>
        <path id="CMR17-35" d="M 730 3692 
C 794 3666 1056 3584 1325 3584 
C 1920 3584 2246 3911 2432 4100 
C 2432 4157 2432 4192 2394 4192 
C 2387 4192 2374 4192 2323 4163 
C 2099 4058 1837 3973 1517 3973 
C 1325 3973 1037 3999 723 4139 
C 653 4171 640 4171 634 4171 
C 602 4171 595 4164 595 4037 
L 595 2203 
C 595 2089 595 2057 659 2057 
C 691 2057 704 2070 736 2114 
C 941 2401 1222 2522 1542 2522 
C 1766 2522 2246 2382 2246 1289 
C 2246 1085 2246 715 2054 421 
C 1894 159 1645 25 1370 25 
C 947 25 518 320 403 814 
C 429 807 480 795 506 795 
C 589 795 749 840 749 1038 
C 749 1210 627 1280 506 1280 
C 358 1280 262 1190 262 1011 
C 262 454 704 -128 1382 -128 
C 2042 -128 2669 440 2669 1264 
C 2669 2030 2170 2624 1549 2624 
C 1222 2624 947 2503 730 2274 
L 730 3692 
z
" transform="scale(0.015625)"/>
       </defs>
       <use xlink:href="#CMR17-30" transform="scale(0.996264)"/>
       <use xlink:href="#CMMI12-3a" transform="translate(45.690477 0) scale(0.996264)"/>
       <use xlink:href="#CMR17-35" transform="translate(72.787654 0) scale(0.996264)"/>
      </g>
     </g>
    </g>
    <g id="xtick_3">
     <g id="line2d_12">
      <g>
       <use xlink:href="#mdf0fdf91a3" x="202.105525" y="210.607343" style="stroke: #000000; stroke-width: 0.8"/>
      </g>
     </g>
     <g id="text_3">
      <!-- $\mathdefault{1.0}$ -->
      <g transform="translate(192.034884 225.868795) scale(0.17 -0.17)">
       <defs>
        <path id="CMR17-31" d="M 1702 4058 
C 1702 4192 1696 4192 1606 4192 
C 1357 3916 979 3827 621 3827 
C 602 3827 570 3827 563 3808 
C 557 3795 557 3782 557 3648 
C 755 3648 1088 3686 1344 3839 
L 1344 461 
C 1344 236 1331 160 781 160 
L 589 160 
L 589 0 
C 896 0 1216 0 1523 0 
C 1830 0 2150 0 2458 0 
L 2458 160 
L 2266 160 
C 1715 160 1702 230 1702 458 
L 1702 4058 
z
" transform="scale(0.015625)"/>
       </defs>
       <use xlink:href="#CMR17-31" transform="scale(0.996264)"/>
       <use xlink:href="#CMMI12-3a" transform="translate(45.690477 0) scale(0.996264)"/>
       <use xlink:href="#CMR17-30" transform="translate(72.787654 0) scale(0.996264)"/>
      </g>
     </g>
    </g>
    <g id="text_4">
     <!-- $s$ -->
     <g transform="translate(117.025833 244.924534) scale(0.17 -0.17)">
      <defs>
       <path id="CMMI12-73" d="M 1459 1280 
C 1568 1261 1741 1223 1779 1216 
C 1862 1192 2150 1090 2150 783 
C 2150 586 1971 70 1229 70 
C 1094 70 614 70 486 436 
C 742 404 870 603 870 745 
C 870 880 781 950 653 950 
C 512 950 326 841 326 552 
C 326 173 710 -64 1222 -64 
C 2195 -64 2483 651 2483 984 
C 2483 1079 2483 1258 2278 1462 
C 2118 1616 1965 1648 1619 1718 
C 1446 1756 1171 1814 1171 2101 
C 1171 2229 1286 2689 1894 2689 
C 2163 2689 2426 2589 2490 2368 
C 2208 2368 2195 2125 2195 2119 
C 2195 1984 2317 1946 2374 1946 
C 2464 1946 2643 2015 2643 2281 
C 2643 2545 2400 2816 1901 2816 
C 1062 2816 838 2160 838 1899 
C 838 1414 1312 1312 1459 1280 
z
" transform="scale(0.015625)"/>
      </defs>
      <use xlink:href="#CMMI12-73" transform="scale(0.996264)"/>
     </g>
    </g>
    <g id="text_5">
     <!-- $\times\mathdefault{10^{−2}}\mathdefault{}$ -->
     <g transform="translate(166.366583 244.066488) scale(0.17 -0.17)">
      <defs>
       <path id="CMSY10-2" d="M 2490 1785 
L 1210 3059 
C 1133 3136 1120 3148 1069 3148 
C 1005 3148 941 3091 941 3020 
C 941 2976 954 2963 1024 2892 
L 2304 1606 
L 1024 320 
C 954 249 941 236 941 192 
C 941 121 1005 64 1069 64 
C 1120 64 1133 76 1210 153 
L 2483 1427 
L 3808 102 
C 3821 96 3866 64 3904 64 
C 3981 64 4032 121 4032 192 
C 4032 204 4032 230 4013 262 
C 4006 275 2989 1280 2669 1606 
L 3840 2777 
C 3872 2816 3968 2899 4000 2937 
C 4006 2950 4032 2976 4032 3020 
C 4032 3091 3981 3148 3904 3148 
C 3853 3148 3827 3123 3757 3052 
L 2490 1785 
z
" transform="scale(0.015625)"/>
       <path id="CMSY10-0" d="M 4218 1472 
C 4326 1472 4442 1472 4442 1600 
C 4442 1728 4326 1728 4218 1728 
L 755 1728 
C 646 1728 531 1728 531 1600 
C 531 1472 646 1472 755 1472 
L 4218 1472 
z
" transform="scale(0.015625)"/>
       <path id="CMR17-32" d="M 2669 989 
L 2554 989 
C 2490 536 2438 459 2413 420 
C 2381 369 1920 369 1830 369 
L 602 369 
C 832 619 1280 1072 1824 1597 
C 2214 1967 2669 2402 2669 3035 
C 2669 3790 2067 4224 1395 4224 
C 691 4224 262 3604 262 3030 
C 262 2780 448 2748 525 2748 
C 589 2748 781 2787 781 3010 
C 781 3207 614 3264 525 3264 
C 486 3264 448 3258 422 3245 
C 544 3790 915 4058 1306 4058 
C 1862 4058 2227 3617 2227 3035 
C 2227 2479 1901 2000 1536 1584 
L 262 146 
L 262 0 
L 2515 0 
L 2669 989 
z
" transform="scale(0.015625)"/>
      </defs>
      <use xlink:href="#CMSY10-2" transform="scale(0.996264)"/>
      <use xlink:href="#CMR17-31" transform="translate(77.487468 0) scale(0.996264)"/>
      <use xlink:href="#CMR17-30" transform="translate(123.177945 0) scale(0.996264)"/>
      <use xlink:href="#CMSY10-0" transform="translate(168.868422 36.153639) scale(0.697382)"/>
      <use xlink:href="#CMR17-32" transform="translate(223.109415 36.153639) scale(0.697382)"/>
     </g>
    </g>
   </g>
   <g id="matplotlib.axis_2">
    <g id="ytick_1">
     <g id="line2d_13">
      <defs>
       <path id="m655df03012" d="M 0 0 
L 4 0 
" style="stroke: #000000; stroke-width: 0.8"/>
      </defs>
      <g>
       <use xlink:href="#m655df03012" x="31.640242" y="174.842421" style="stroke: #000000; stroke-width: 0.8"/>
      </g>
     </g>
     <g id="text_6">
      <!-- $\mathdefault{−4}$ -->
      <g transform="translate(7.2 180.723146) scale(0.17 -0.17)">
       <defs>
        <path id="CMR17-34" d="M 2150 4122 
C 2150 4256 2144 4256 2029 4256 
L 128 1254 
L 128 1088 
L 1779 1088 
L 1779 457 
C 1779 224 1766 160 1318 160 
L 1197 160 
L 1197 0 
C 1402 0 1747 0 1965 0 
C 2182 0 2528 0 2733 0 
L 2733 160 
L 2611 160 
C 2163 160 2150 224 2150 457 
L 2150 1088 
L 2803 1088 
L 2803 1254 
L 2150 1254 
L 2150 4122 
z
M 1798 3703 
L 1798 1254 
L 256 1254 
L 1798 3703 
z
" transform="scale(0.015625)"/>
       </defs>
       <use xlink:href="#CMSY10-0" transform="scale(0.996264)"/>
       <use xlink:href="#CMR17-34" transform="translate(77.487468 0) scale(0.996264)"/>
      </g>
     </g>
    </g>
    <g id="ytick_2">
     <g id="line2d_14">
      <g>
       <use xlink:href="#m655df03012" x="31.640242" y="102.757094" style="stroke: #000000; stroke-width: 0.8"/>
      </g>
     </g>
     <g id="text_7">
      <!-- $\mathdefault{−2}$ -->
      <g transform="translate(7.2 108.63782) scale(0.17 -0.17)">
       <use xlink:href="#CMSY10-0" transform="scale(0.996264)"/>
       <use xlink:href="#CMR17-32" transform="translate(77.487468 0) scale(0.996264)"/>
      </g>
     </g>
    </g>
    <g id="ytick_3">
     <g id="line2d_15">
      <g>
       <use xlink:href="#m655df03012" x="31.640242" y="30.671767" style="stroke: #000000; stroke-width: 0.8"/>
      </g>
     </g>
     <g id="text_8">
      <!-- $\mathdefault{0}$ -->
      <g transform="translate(20.372861 36.552493) scale(0.17 -0.17)">
       <use xlink:href="#CMR17-30" transform="scale(0.996264)"/>
      </g>
     </g>
    </g>
    <g id="text_9">
     <!-- $\times\mathdefault{10^{−4}}\mathdefault{}$ -->
     <g transform="translate(31.640242 19.103406) scale(0.17 -0.17)">
      <use xlink:href="#CMSY10-2" transform="scale(0.996264)"/>
      <use xlink:href="#CMR17-31" transform="translate(77.487468 0) scale(0.996264)"/>
      <use xlink:href="#CMR17-30" transform="translate(123.177945 0) scale(0.996264)"/>
      <use xlink:href="#CMSY10-0" transform="translate(168.868422 36.153639) scale(0.697382)"/>
      <use xlink:href="#CMR17-34" transform="translate(223.109415 36.153639) scale(0.697382)"/>
     </g>
    </g>
   </g>
   <g id="line2d_16">
    <path d="M 31.640242 30.671767 
L 210.22292 30.671767 
" clip-path="url(#p86ed6b311b)" style="fill: none; stroke-dasharray: 1.85,0.8; stroke-dashoffset: 0; stroke: #808080; stroke-width: 0.5"/>
   </g>
   <g id="line2d_17">
    <path d="M 39.757637 210.607343 
L 39.757637 22.103406 
" clip-path="url(#p86ed6b311b)" style="fill: none; stroke-dasharray: 1.85,0.8; stroke-dashoffset: 0; stroke: #808080; stroke-width: 0.5"/>
   </g>
   <g id="line2d_18">
    <path d="M 55.992426 82.140218 
L 72.227214 85.962226 
L 88.462003 88.274297 
L 104.696792 89.926954 
L 120.931581 91.217758 
L 137.16637 92.272609 
L 153.401159 93.17058 
L 169.635947 93.950654 
L 185.870736 94.644987 
L 202.105525 95.272406 
" clip-path="url(#p86ed6b311b)" style="fill: none"/>
    <defs>
     <path id="m33d6962533" d="M 0 2.35 
C 0.623227 2.35 1.221013 2.102389 1.661701 1.661701 
C 2.102389 1.221013 2.35 0.623227 2.35 0 
C 2.35 -0.623227 2.102389 -1.221013 1.661701 -1.661701 
C 1.221013 -2.102389 0.623227 -2.35 0 -2.35 
C -0.623227 -2.35 -1.221013 -2.102389 -1.661701 -1.661701 
C -2.102389 -1.221013 -2.35 -0.623227 -2.35 0 
C -2.35 0.623227 -2.102389 1.221013 -1.661701 1.661701 
C -1.221013 2.102389 -0.623227 2.35 0 2.35 
z
" style="stroke: #6b8e23; stroke-width: 0.5"/>
    </defs>
    <g clip-path="url(#p86ed6b311b)">
     <use xlink:href="#m33d6962533" x="55.992426" y="82.140218" style="fill: #6b8e23; fill-opacity: 0.5; stroke: #6b8e23; stroke-width: 0.5"/>
     <use xlink:href="#m33d6962533" x="72.227214" y="85.962226" style="fill: #6b8e23; fill-opacity: 0.5; stroke: #6b8e23; stroke-width: 0.5"/>
     <use xlink:href="#m33d6962533" x="88.462003" y="88.274297" style="fill: #6b8e23; fill-opacity: 0.5; stroke: #6b8e23; stroke-width: 0.5"/>
     <use xlink:href="#m33d6962533" x="104.696792" y="89.926954" style="fill: #6b8e23; fill-opacity: 0.5; stroke: #6b8e23; stroke-width: 0.5"/>
     <use xlink:href="#m33d6962533" x="120.931581" y="91.217758" style="fill: #6b8e23; fill-opacity: 0.5; stroke: #6b8e23; stroke-width: 0.5"/>
     <use xlink:href="#m33d6962533" x="137.16637" y="92.272609" style="fill: #6b8e23; fill-opacity: 0.5; stroke: #6b8e23; stroke-width: 0.5"/>
     <use xlink:href="#m33d6962533" x="153.401159" y="93.17058" style="fill: #6b8e23; fill-opacity: 0.5; stroke: #6b8e23; stroke-width: 0.5"/>
     <use xlink:href="#m33d6962533" x="169.635947" y="93.950654" style="fill: #6b8e23; fill-opacity: 0.5; stroke: #6b8e23; stroke-width: 0.5"/>
     <use xlink:href="#m33d6962533" x="185.870736" y="94.644987" style="fill: #6b8e23; fill-opacity: 0.5; stroke: #6b8e23; stroke-width: 0.5"/>
     <use xlink:href="#m33d6962533" x="202.105525" y="95.272406" style="fill: #6b8e23; fill-opacity: 0.5; stroke: #6b8e23; stroke-width: 0.5"/>
    </g>
   </g>
   <g id="line2d_19">
    <path d="M 44.37448 79.405111 
L 44.655821 79.471344 
L 44.937161 79.537578 
L 45.218502 79.603811 
L 45.499843 79.670045 
L 45.781184 79.736278 
L 46.062524 79.802512 
L 46.343865 79.868745 
L 46.625206 79.934979 
L 46.906547 80.001212 
L 47.187887 80.067446 
L 47.469228 80.133679 
L 47.750569 80.199913 
L 48.03191 80.266146 
L 48.31325 80.33238 
L 48.594591 80.398613 
L 48.875932 80.464847 
L 49.157273 80.53108 
L 49.438613 80.597314 
L 49.719954 80.663547 
L 50.001295 80.72978 
L 50.282636 80.796014 
L 50.563976 80.862247 
L 50.845317 80.928481 
L 51.126658 80.994714 
L 51.407999 81.060948 
L 51.68934 81.127181 
L 51.97068 81.193415 
L 52.252021 81.259648 
L 52.533362 81.325882 
L 52.814703 81.392115 
L 53.096043 81.458349 
L 53.377384 81.524582 
L 53.658725 81.590816 
L 53.940066 81.657049 
L 54.221406 81.723283 
L 54.502747 81.789516 
L 54.784088 81.85575 
L 55.065429 81.921983 
L 55.346769 81.988217 
L 55.62811 82.05445 
L 55.909451 82.120684 
L 56.190792 82.186917 
L 56.472132 82.253151 
L 56.753473 82.319384 
L 57.034814 82.385618 
L 57.316155 82.451851 
L 57.597495 82.518085 
L 57.878836 82.584318 
L 58.160177 82.650552 
L 58.441518 82.716785 
L 58.722858 82.783019 
L 59.004199 82.849252 
L 59.28554 82.915486 
L 59.566881 82.981719 
L 59.848221 83.047953 
L 60.129562 83.114186 
L 60.410903 83.18042 
L 60.692244 83.246653 
L 60.973584 83.312887 
L 61.254925 83.37912 
L 61.536266 83.445354 
L 61.817607 83.511587 
L 62.098947 83.57782 
L 62.380288 83.644054 
L 62.661629 83.710287 
L 62.94297 83.776521 
L 63.22431 83.842754 
L 63.505651 83.908988 
L 63.786992 83.975221 
L 64.068333 84.041455 
L 64.349673 84.107688 
L 64.631014 84.173922 
L 64.912355 84.240155 
L 65.193696 84.306389 
L 65.475036 84.372622 
L 65.756377 84.438856 
L 66.037718 84.505089 
L 66.319059 84.571323 
L 66.600399 84.637556 
L 66.88174 84.70379 
L 67.163081 84.770023 
L 67.444422 84.836257 
L 67.725762 84.90249 
L 68.007103 84.968724 
L 68.288444 85.034957 
L 68.569785 85.101191 
L 68.851125 85.167424 
L 69.132466 85.233658 
L 69.413807 85.299891 
L 69.695148 85.366125 
L 69.976488 85.432358 
L 70.257829 85.498592 
L 70.53917 85.564825 
L 70.820511 85.631059 
L 71.101851 85.697292 
L 71.383192 85.763526 
L 71.664533 85.829759 
L 71.945874 85.895993 
L 72.227214 85.962226 
" clip-path="url(#p86ed6b311b)" style="fill: none; stroke-dasharray: 1.85,0.8; stroke-dashoffset: 0; stroke: #000000; stroke-width: 0.5"/>
   </g>
   <g id="line2d_20">
    <path d="M 55.992426 58.558978 
L 72.227214 60.524415 
L 88.462003 61.733107 
L 104.696792 62.614958 
L 120.931581 63.313272 
L 137.16637 63.895396 
L 153.401159 64.39711 
L 169.635947 64.840832 
L 185.870736 65.241403 
L 202.105525 65.608204 
" clip-path="url(#p86ed6b311b)" style="fill: none"/>
    <defs>
     <path id="mfc9898bad9" d="M 0 3.323402 
L 3.323402 0 
L 0 -3.323402 
L -3.323402 0 
z
" style="stroke: #7a3e9d; stroke-width: 0.5; stroke-linejoin: miter"/>
    </defs>
    <g clip-path="url(#p86ed6b311b)">
     <use xlink:href="#mfc9898bad9" x="55.992426" y="58.558978" style="fill: #7a3e9d; fill-opacity: 0.5; stroke: #7a3e9d; stroke-width: 0.5; stroke-linejoin: miter"/>
     <use xlink:href="#mfc9898bad9" x="72.227214" y="60.524415" style="fill: #7a3e9d; fill-opacity: 0.5; stroke: #7a3e9d; stroke-width: 0.5; stroke-linejoin: miter"/>
     <use xlink:href="#mfc9898bad9" x="88.462003" y="61.733107" style="fill: #7a3e9d; fill-opacity: 0.5; stroke: #7a3e9d; stroke-width: 0.5; stroke-linejoin: miter"/>
     <use xlink:href="#mfc9898bad9" x="104.696792" y="62.614958" style="fill: #7a3e9d; fill-opacity: 0.5; stroke: #7a3e9d; stroke-width: 0.5; stroke-linejoin: miter"/>
     <use xlink:href="#mfc9898bad9" x="120.931581" y="63.313272" style="fill: #7a3e9d; fill-opacity: 0.5; stroke: #7a3e9d; stroke-width: 0.5; stroke-linejoin: miter"/>
     <use xlink:href="#mfc9898bad9" x="137.16637" y="63.895396" style="fill: #7a3e9d; fill-opacity: 0.5; stroke: #7a3e9d; stroke-width: 0.5; stroke-linejoin: miter"/>
     <use xlink:href="#mfc9898bad9" x="153.401159" y="64.39711" style="fill: #7a3e9d; fill-opacity: 0.5; stroke: #7a3e9d; stroke-width: 0.5; stroke-linejoin: miter"/>
     <use xlink:href="#mfc9898bad9" x="169.635947" y="64.840832" style="fill: #7a3e9d; fill-opacity: 0.5; stroke: #7a3e9d; stroke-width: 0.5; stroke-linejoin: miter"/>
     <use xlink:href="#mfc9898bad9" x="185.870736" y="65.241403" style="fill: #7a3e9d; fill-opacity: 0.5; stroke: #7a3e9d; stroke-width: 0.5; stroke-linejoin: miter"/>
     <use xlink:href="#mfc9898bad9" x="202.105525" y="65.608204" style="fill: #7a3e9d; fill-opacity: 0.5; stroke: #7a3e9d; stroke-width: 0.5; stroke-linejoin: miter"/>
    </g>
   </g>
   <g id="line2d_21">
    <path d="M 42.241876 56.894291 
L 42.544758 56.930959 
L 42.84764 56.967627 
L 43.150523 57.004295 
L 43.453405 57.040963 
L 43.756287 57.077631 
L 44.059169 57.114298 
L 44.362051 57.150966 
L 44.664934 57.187634 
L 44.967816 57.224302 
L 45.270698 57.26097 
L 45.57358 57.297638 
L 45.876462 57.334306 
L 46.179345 57.370974 
L 46.482227 57.407642 
L 46.785109 57.44431 
L 47.087991 57.480978 
L 47.390873 57.517646 
L 47.693756 57.554314 
L 47.996638 57.590981 
L 48.29952 57.627649 
L 48.602402 57.664317 
L 48.905285 57.700985 
L 49.208167 57.737653 
L 49.511049 57.774321 
L 49.813931 57.810989 
L 50.116813 57.847657 
L 50.419696 57.884325 
L 50.722578 57.920993 
L 51.02546 57.957661 
L 51.328342 57.994329 
L 51.631224 58.030997 
L 51.934107 58.067664 
L 52.236989 58.104332 
L 52.539871 58.141 
L 52.842753 58.177668 
L 53.145635 58.214336 
L 53.448518 58.251004 
L 53.7514 58.287672 
L 54.054282 58.32434 
L 54.357164 58.361008 
L 54.660046 58.397676 
L 54.962929 58.434344 
L 55.265811 58.471012 
L 55.568693 58.50768 
L 55.871575 58.544347 
L 56.174457 58.581015 
L 56.47734 58.617683 
L 56.780222 58.654351 
L 57.083104 58.691019 
L 57.385986 58.727687 
L 57.688869 58.764355 
L 57.991751 58.801023 
L 58.294633 58.837691 
L 58.597515 58.874359 
L 58.900397 58.911027 
L 59.20328 58.947695 
L 59.506162 58.984363 
L 59.809044 59.02103 
L 60.111926 59.057698 
L 60.414808 59.094366 
L 60.717691 59.131034 
L 61.020573 59.167702 
L 61.323455 59.20437 
L 61.626337 59.241038 
L 61.929219 59.277706 
L 62.232102 59.314374 
L 62.534984 59.351042 
L 62.837866 59.38771 
L 63.140748 59.424378 
L 63.44363 59.461045 
L 63.746513 59.497713 
L 64.049395 59.534381 
L 64.352277 59.571049 
L 64.655159 59.607717 
L 64.958042 59.644385 
L 65.260924 59.681053 
L 65.563806 59.717721 
L 65.866688 59.754389 
L 66.16957 59.791057 
L 66.472453 59.827725 
L 66.775335 59.864393 
L 67.078217 59.901061 
L 67.381099 59.937728 
L 67.683981 59.974396 
L 67.986864 60.011064 
L 68.289746 60.047732 
L 68.592628 60.0844 
L 68.89551 60.121068 
L 69.198392 60.157736 
L 69.501275 60.194404 
L 69.804157 60.231072 
L 70.107039 60.26774 
L 70.409921 60.304408 
L 70.712803 60.341076 
L 71.015686 60.377744 
L 71.318568 60.414411 
L 71.62145 60.451079 
L 71.924332 60.487747 
L 72.227214 60.524415 
" clip-path="url(#p86ed6b311b)" style="fill: none; stroke-dasharray: 1.85,0.8; stroke-dashoffset: 0; stroke: #000000; stroke-width: 0.5"/>
   </g>
   <g id="line2d_22">
    <path d="M 55.992426 50.695904 
L 72.227214 52.043973 
L 88.462003 52.885601 
L 104.696792 53.509969 
L 120.931581 54.010435 
L 137.16637 54.435733 
L 153.401159 54.80675 
L 169.635947 55.13783 
L 185.870736 55.440103 
L 202.105525 55.720106 
" clip-path="url(#p86ed6b311b)" style="fill: none"/>
    <defs>
     <path id="m786868e9f4" d="M -2.35 2.35 
L 2.35 2.35 
L 2.35 -2.35 
L -2.35 -2.35 
z
" style="stroke: #1f4e8c; stroke-width: 0.5; stroke-linejoin: miter"/>
    </defs>
    <g clip-path="url(#p86ed6b311b)">
     <use xlink:href="#m786868e9f4" x="55.992426" y="50.695904" style="fill: #1f4e8c; fill-opacity: 0.5; stroke: #1f4e8c; stroke-width: 0.5; stroke-linejoin: miter"/>
     <use xlink:href="#m786868e9f4" x="72.227214" y="52.043973" style="fill: #1f4e8c; fill-opacity: 0.5; stroke: #1f4e8c; stroke-width: 0.5; stroke-linejoin: miter"/>
     <use xlink:href="#m786868e9f4" x="88.462003" y="52.885601" style="fill: #1f4e8c; fill-opacity: 0.5; stroke: #1f4e8c; stroke-width: 0.5; stroke-linejoin: miter"/>
     <use xlink:href="#m786868e9f4" x="104.696792" y="53.509969" style="fill: #1f4e8c; fill-opacity: 0.5; stroke: #1f4e8c; stroke-width: 0.5; stroke-linejoin: miter"/>
     <use xlink:href="#m786868e9f4" x="120.931581" y="54.010435" style="fill: #1f4e8c; fill-opacity: 0.5; stroke: #1f4e8c; stroke-width: 0.5; stroke-linejoin: miter"/>
     <use xlink:href="#m786868e9f4" x="137.16637" y="54.435733" style="fill: #1f4e8c; fill-opacity: 0.5; stroke: #1f4e8c; stroke-width: 0.5; stroke-linejoin: miter"/>
     <use xlink:href="#m786868e9f4" x="153.401159" y="54.80675" style="fill: #1f4e8c; fill-opacity: 0.5; stroke: #1f4e8c; stroke-width: 0.5; stroke-linejoin: miter"/>
     <use xlink:href="#m786868e9f4" x="169.635947" y="55.13783" style="fill: #1f4e8c; fill-opacity: 0.5; stroke: #1f4e8c; stroke-width: 0.5; stroke-linejoin: miter"/>
     <use xlink:href="#m786868e9f4" x="185.870736" y="55.440103" style="fill: #1f4e8c; fill-opacity: 0.5; stroke: #1f4e8c; stroke-width: 0.5; stroke-linejoin: miter"/>
     <use xlink:href="#m786868e9f4" x="202.105525" y="55.720106" style="fill: #1f4e8c; fill-opacity: 0.5; stroke: #1f4e8c; stroke-width: 0.5; stroke-linejoin: miter"/>
    </g>
   </g>
   <g id="line2d_23">
    <path d="M 41.540977 49.495917 
L 41.850939 49.521655 
L 42.160901 49.547393 
L 42.470863 49.573131 
L 42.780825 49.598869 
L 43.090787 49.624607 
L 43.400749 49.650344 
L 43.710711 49.676082 
L 44.020673 49.70182 
L 44.330635 49.727558 
L 44.640597 49.753296 
L 44.950559 49.779034 
L 45.260521 49.804772 
L 45.570483 49.83051 
L 45.880445 49.856248 
L 46.190407 49.881986 
L 46.500369 49.907724 
L 46.810331 49.933462 
L 47.120293 49.9592 
L 47.430255 49.984938 
L 47.740217 50.010676 
L 48.050179 50.036414 
L 48.360141 50.062152 
L 48.670103 50.08789 
L 48.980065 50.113627 
L 49.290027 50.139365 
L 49.599989 50.165103 
L 49.909951 50.190841 
L 50.219913 50.216579 
L 50.529875 50.242317 
L 50.839837 50.268055 
L 51.149799 50.293793 
L 51.459761 50.319531 
L 51.769723 50.345269 
L 52.079685 50.371007 
L 52.389647 50.396745 
L 52.699609 50.422483 
L 53.009571 50.448221 
L 53.319533 50.473959 
L 53.629495 50.499697 
L 53.939457 50.525435 
L 54.249419 50.551173 
L 54.559381 50.57691 
L 54.869343 50.602648 
L 55.179305 50.628386 
L 55.489267 50.654124 
L 55.799229 50.679862 
L 56.109191 50.7056 
L 56.419153 50.731338 
L 56.729115 50.757076 
L 57.039077 50.782814 
L 57.349039 50.808552 
L 57.659001 50.83429 
L 57.968963 50.860028 
L 58.278925 50.885766 
L 58.588887 50.911504 
L 58.898849 50.937242 
L 59.208811 50.96298 
L 59.518773 50.988718 
L 59.828735 51.014455 
L 60.138697 51.040193 
L 60.448659 51.065931 
L 60.758621 51.091669 
L 61.068583 51.117407 
L 61.378545 51.143145 
L 61.688507 51.168883 
L 61.998469 51.194621 
L 62.308431 51.220359 
L 62.618393 51.246097 
L 62.928355 51.271835 
L 63.238317 51.297573 
L 63.548279 51.323311 
L 63.858241 51.349049 
L 64.168203 51.374787 
L 64.478165 51.400525 
L 64.788127 51.426263 
L 65.098089 51.452001 
L 65.408051 51.477738 
L 65.718013 51.503476 
L 66.027975 51.529214 
L 66.337937 51.554952 
L 66.647899 51.58069 
L 66.957861 51.606428 
L 67.267823 51.632166 
L 67.577785 51.657904 
L 67.887747 51.683642 
L 68.197709 51.70938 
L 68.507671 51.735118 
L 68.817633 51.760856 
L 69.127595 51.786594 
L 69.437557 51.812332 
L 69.747519 51.83807 
L 70.057481 51.863808 
L 70.367443 51.889546 
L 70.677405 51.915284 
L 70.987367 51.941021 
L 71.297329 51.966759 
L 71.607291 51.992497 
L 71.917252 52.018235 
L 72.227214 52.043973 
" clip-path="url(#p86ed6b311b)" style="fill: none; stroke-dasharray: 1.85,0.8; stroke-dashoffset: 0; stroke: #000000; stroke-width: 0.5"/>
   </g>
   <g id="line2d_24">
    <path d="M 39.757637 30.671767 
L 55.992426 202.038982 
" clip-path="url(#p86ed6b311b)" style="fill: none; stroke: #808080; stroke-width: 0.5; stroke-linecap: square"/>
   </g>
   <g id="patch_3">
    <path d="M 31.640242 210.607343 
L 31.640242 22.103406 
" style="fill: none; stroke: #000000; stroke-width: 0.8; stroke-linejoin: miter; stroke-linecap: square"/>
   </g>
   <g id="patch_4">
    <path d="M 210.22292 210.607343 
L 210.22292 22.103406 
" style="fill: none; stroke: #000000; stroke-width: 0.8; stroke-linejoin: miter; stroke-linecap: square"/>
   </g>
   <g id="patch_5">
    <path d="M 31.640242 210.607343 
L 210.22292 210.607343 
" style="fill: none; stroke: #000000; stroke-width: 0.8; stroke-linejoin: miter; stroke-linecap: square"/>
   </g>
   <g id="patch_6">
    <path d="M 31.640242 22.103406 
L 210.22292 22.103406 
" style="fill: none; stroke: #000000; stroke-width: 0.8; stroke-linejoin: miter; stroke-linecap: square"/>
   </g>
   <g id="PathCollection_1">
    <defs>
     <path id="mcff97edac9" d="M -2.236068 2.236068 
L 2.236068 -2.236068 
M -2.236068 -2.236068 
L 2.236068 2.236068 
" style="stroke: #000000; stroke-width: 0.5"/>
    </defs>
    <g clip-path="url(#p86ed6b311b)">
     <use xlink:href="#mcff97edac9" x="44.37448" y="79.405111" style="stroke: #000000; stroke-width: 0.5"/>
    </g>
   </g>
   <g id="PathCollection_2">
    <g clip-path="url(#p86ed6b311b)">
     <use xlink:href="#mcff97edac9" x="42.241876" y="56.894291" style="stroke: #000000; stroke-width: 0.5"/>
    </g>
   </g>
   <g id="PathCollection_3">
    <g clip-path="url(#p86ed6b311b)">
     <use xlink:href="#mcff97edac9" x="41.540977" y="49.495917" style="stroke: #000000; stroke-width: 0.5"/>
    </g>
   </g>
  </g>
 </g>
 <defs>
  <clipPath id="p86ed6b311b">
   <rect x="31.640242" y="22.103406" width="178.582677" height="188.503937"/>
  </clipPath>
 </defs>
</svg>
